<?xml version="1.0" encoding="utf-8"?>
<!-- Generator: Adobe Illustrator 24.3.0, SVG Export Plug-In . SVG Version: 6.00 Build 0)  -->
<svg version="1.1" id="Layer_1" xmlns="http://www.w3.org/2000/svg" xmlns:xlink="http://www.w3.org/1999/xlink" x="0px" y="0px"
	 viewBox="0 0 32 32" style="enable-background:new 0 0 32 32;" xml:space="preserve">
<g>
	<path d="M22.58,31.65c-1.78,0-3.56,0.01-5.34,0c-2.33-0.01-3.72-1.39-3.72-3.71c-0.01-3.51-0.01-7.02,0-10.53
		c0.01-2.29,1.4-3.66,3.69-3.67c3.61-0.01,7.21-0.01,10.82,0c2.29,0.01,3.69,1.41,3.69,3.67c0.01,3.53,0.01,7.07,0,10.6
		c-0.01,2.22-1.43,3.63-3.66,3.64C26.24,31.66,24.41,31.65,22.58,31.65z M22.65,15.99c-1.8,0-3.61-0.01-5.41,0
		c-1.06,0-1.46,0.39-1.46,1.43c-0.01,3.51-0.01,7.02,0,10.53c0,1.06,0.4,1.45,1.44,1.45c3.61,0.01,7.21,0.01,10.82,0
		c1.03,0,1.43-0.41,1.43-1.46c0-3.49,0-6.97,0-10.46c0-1.1-0.38-1.48-1.48-1.48C26.21,15.98,24.43,15.99,22.65,15.99z"/>
	<path d="M9.23,11.48c-1.78,0-3.56,0.01-5.34,0c-2.24-0.01-3.62-1.39-3.63-3.64c-0.01-1.31-0.01-2.62,0-3.93
		C0.28,1.81,1.71,0.37,3.8,0.36c3.63-0.01,7.26-0.01,10.89,0c2.05,0.01,3.49,1.43,3.52,3.49c0.03,1.38,0.02,2.76,0,4.14
		c-0.03,2.08-1.42,3.47-3.5,3.49C12.88,11.5,11.06,11.48,9.23,11.48z M9.22,9.23c1.78,0,3.56,0,5.34,0c1.01,0,1.4-0.39,1.4-1.4
		c0.01-1.26,0.01-2.53,0-3.79c-0.01-1-0.41-1.42-1.4-1.42C11,2.61,7.44,2.61,3.88,2.62C2.93,2.62,2.52,3.04,2.51,4
		c-0.01,1.29-0.01,2.57,0,3.86c0.01,0.97,0.4,1.36,1.36,1.37C5.66,9.24,7.44,9.23,9.22,9.23z"/>
	<path d="M0.26,22.66c0-1.73-0.01-3.46,0-5.19c0.01-2.33,1.39-3.72,3.7-3.74c1.01-0.01,2.01-0.01,3.02,0
		c2.18,0.03,3.58,1.37,3.59,3.55c0.03,3.6,0.03,7.2,0,10.81c-0.02,2.17-1.42,3.54-3.58,3.56c-1.08,0.01-2.15,0.02-3.23,0
		c-2.05-0.04-3.48-1.46-3.5-3.51C0.24,26.31,0.26,24.49,0.26,22.66z M8.32,22.75c0-1.8,0.01-3.6,0-5.4c0-0.93-0.4-1.34-1.31-1.35
		c-1.08-0.02-2.15-0.02-3.23,0c-0.83,0.02-1.26,0.45-1.26,1.27c-0.01,3.6-0.01,7.2,0,10.8c0,0.9,0.44,1.31,1.35,1.33
		c0.98,0.01,1.97,0.01,2.95,0c1.13,0,1.5-0.37,1.5-1.53C8.33,26.16,8.32,24.46,8.32,22.75z"/>
	<path d="M21.15,5.89c0-0.75-0.03-1.5,0.01-2.24c0.09-1.85,1.44-3.21,3.28-3.27c1.33-0.04,2.67-0.04,4,0
		c1.82,0.06,3.21,1.45,3.28,3.29c0.05,1.52,0.05,3.04,0,4.56c-0.07,1.87-1.48,3.22-3.36,3.26c-1.26,0.03-2.53,0.03-3.79,0
		c-2.01-0.04-3.36-1.4-3.41-3.42C21.12,7.34,21.14,6.61,21.15,5.89C21.14,5.89,21.14,5.89,21.15,5.89z M23.4,5.92
		C23.4,5.92,23.4,5.92,23.4,5.92c0,0.72-0.02,1.45,0.01,2.17c0.03,0.72,0.43,1.12,1.15,1.13c1.24,0.02,2.48,0.02,3.72,0
		c0.75-0.01,1.17-0.42,1.19-1.18c0.02-1.4,0.02-2.8,0-4.2c-0.01-0.78-0.45-1.21-1.24-1.22c-1.19-0.02-2.38-0.02-3.58,0
		c-0.83,0.01-1.23,0.43-1.25,1.27C23.38,4.57,23.4,5.24,23.4,5.92z"/>
</g>
</svg>
