<?xml version="1.0" encoding="utf-8"?>
<!-- Generator: Adobe Illustrator 24.3.0, SVG Export Plug-In . SVG Version: 6.00 Build 0)  -->
<svg version="1.1" id="Layer_1" xmlns="http://www.w3.org/2000/svg" xmlns:xlink="http://www.w3.org/1999/xlink" x="0px" y="0px"
	 viewBox="0 0 32 32" style="enable-background:new 0 0 32 32;" xml:space="preserve">
<g>
	<path d="M9.77,11.21c4.15,0,8.26,0,12.46,0c-0.32,1.09-0.62,2.12-0.92,3.15c-1.4,4.7-2.82,9.4-4.21,14.1
		c-0.19,0.66-0.52,0.91-1.2,0.89c-0.6-0.01-0.87-0.29-1.03-0.83c-0.98-3.34-1.98-6.67-2.98-10.01c-0.67-2.26-1.35-4.52-2.02-6.78
		C9.84,11.57,9.82,11.41,9.77,11.21z"/>
	<path d="M9.77,10c0.04-0.23,0.06-0.41,0.11-0.58c0.55-1.98,1.11-3.96,1.65-5.94c0.16-0.58,0.44-0.84,1.08-0.83
		c2.25,0.04,4.49,0.03,6.74,0c0.58-0.01,0.9,0.16,1.06,0.76c0.54,2.03,1.13,4.05,1.7,6.07c0.04,0.15,0.05,0.31,0.08,0.52
		C18.03,10,13.93,10,9.77,10z"/>
	<path d="M31.73,11.16c-0.26,0.48-0.39,0.86-0.63,1.16C27.06,17.35,23,22.37,18.93,27.39c-0.1,0.12-0.22,0.23-0.43,0.31
		c0.1-0.34,0.18-0.69,0.29-1.03c1.48-4.94,2.97-9.89,4.42-14.84c0.15-0.53,0.38-0.69,0.92-0.68c2.25,0.03,4.49,0.01,6.74,0.01
		C31.1,11.16,31.33,11.16,31.73,11.16z"/>
	<path d="M13.44,27.79C11.8,26.28,0.55,12.03,0.39,11.23c0.15-0.02,0.3-0.07,0.45-0.07c2.39,0,4.77,0,7.16-0.01
		c0.39,0,0.57,0.12,0.69,0.51c1.57,5.28,3.15,10.56,4.73,15.84C13.44,27.56,13.43,27.64,13.44,27.79z"/>
	<path d="M21.4,2.68c1.33,0,2.57-0.03,3.81,0.01c0.91,0.03,1.64,0.49,2.2,1.22c1.22,1.6,2.44,3.2,3.64,4.81
		c0.26,0.34,0.42,0.76,0.69,1.25c-0.35,0.04-0.54,0.07-0.74,0.07c-2.32,0-4.63-0.01-6.95,0.01c-0.5,0.01-0.68-0.16-0.8-0.63
		c-0.55-2.05-1.15-4.09-1.72-6.13C21.48,3.12,21.46,2.93,21.4,2.68z"/>
	<path d="M10.6,2.69c-0.27,0.95-0.52,1.84-0.78,2.73C9.44,6.8,9.07,8.17,8.66,9.54c-0.06,0.2-0.29,0.48-0.45,0.48
		c-2.59,0.03-5.19,0.02-7.96,0.02C0.46,9.59,0.56,9.2,0.77,8.91C2.06,7.18,3.32,5.43,4.7,3.79c0.44-0.52,1.22-0.96,1.89-1.05
		C7.88,2.58,9.2,2.69,10.6,2.69z"/>
</g>
</svg>
