<?xml version="1.0" encoding="utf-8"?>
<!-- Generator: Adobe Illustrator 24.3.0, SVG Export Plug-In . SVG Version: 6.00 Build 0)  -->
<svg version="1.1" id="Layer_1" xmlns="http://www.w3.org/2000/svg" xmlns:xlink="http://www.w3.org/1999/xlink" x="0px" y="0px"
	 viewBox="0 0 32 32" style="enable-background:new 0 0 32 32;" xml:space="preserve">
<path d="M16.01,2.32c3.16,0,6.33,0.01,9.49-0.01c0.55,0,0.91,0.18,1.25,0.6c1.56,1.91,3.13,3.8,4.73,5.67
	c0.37,0.43,0.35,0.74,0.02,1.17c-4.97,6.48-9.92,12.97-14.88,19.46c-0.48,0.63-0.75,0.63-1.24-0.01C10.42,22.71,5.45,16.2,0.47,9.7
	c-0.3-0.4-0.3-0.69,0.03-1.08C2.13,6.7,3.75,4.76,5.35,2.81c0.29-0.35,0.59-0.5,1.04-0.5C9.6,2.33,12.81,2.32,16.01,2.32z
	 M15.93,27.15c0.05,0,0.1,0,0.15,0.01c1.83-5.79,3.66-11.58,5.5-17.39c-3.74,0-7.41,0-11.14,0C12.28,15.6,14.11,21.37,15.93,27.15z
	 M14.52,26.3c-0.07-0.28-0.08-0.38-0.11-0.47c-1.65-5.24-3.31-10.47-4.95-15.71C9.35,9.77,9.17,9.71,8.84,9.71
	C6.68,9.72,4.52,9.72,2.37,9.72c-0.13,0-0.26,0.03-0.48,0.05C6.1,15.28,10.25,20.72,14.52,26.3z M22.69,9.73
	c-1.72,5.46-3.45,10.91-5.17,16.36c0.03,0.02,0.06,0.03,0.1,0.05c4.16-5.44,8.31-10.89,12.53-16.41
	C27.57,9.73,25.15,9.73,22.69,9.73z M16.06,3.82c-1.58,1.59-3.2,3.21-4.75,4.76c3.09,0,6.31,0,9.52,0
	C19.21,6.95,17.59,5.34,16.06,3.82z M6.96,3.44c0.97,1.66,1.9,3.24,2.77,4.74c1.61-1.61,3.18-3.18,4.73-4.74
	C12.04,3.44,9.56,3.44,6.96,3.44z M17.54,3.45c1.57,1.56,3.16,3.14,4.75,4.72c0.88-1.52,1.8-3.1,2.75-4.72
	C22.45,3.45,19.96,3.45,17.54,3.45z M5.94,3.78c-1.34,1.6-2.64,3.16-4,4.79c2.32,0,4.52,0,6.8,0C7.79,6.95,6.88,5.4,5.94,3.78z
	 M26.07,3.78c-0.95,1.63-1.86,3.19-2.78,4.78c2.29,0,4.49,0,6.78,0C28.71,6.93,27.41,5.38,26.07,3.78z"/>
</svg>
