<?xml version="1.0" encoding="utf-8"?>
<!-- Generator: Adobe Illustrator 24.3.0, SVG Export Plug-In . SVG Version: 6.00 Build 0)  -->
<svg version="1.1" id="Layer_1" xmlns="http://www.w3.org/2000/svg" xmlns:xlink="http://www.w3.org/1999/xlink" x="0px" y="0px"
	 viewBox="0 0 32 32" style="enable-background:new 0 0 32 32;" xml:space="preserve">
<path d="M23.79,19.45c0.16-0.98,0.3-1.92,0.47-2.94c-0.98,0-1.87,0-2.76,0c-1.16,0-1.29-0.13-1.29-1.32c0-0.76-0.02-1.52-0.01-2.28
	c0.02-1.66,0.78-2.42,2.43-2.42c0.67,0,1.34,0,2.08,0c0-0.86,0.01-1.66-0.01-2.46c0-0.12-0.19-0.32-0.31-0.34
	c-1.78-0.28-3.53-0.24-5.21,0.51c-1.4,0.63-2.14,1.7-2.1,3.28c0.03,1.37,0.01,2.73,0,4.1c0,0.7-0.22,0.92-0.93,0.93
	c-0.92,0.01-1.83,0-2.8,0c0,0.97,0,1.9,0,2.94c0.85,0,1.72,0,2.58,0c1.03,0,1.15,0.12,1.15,1.16c0,3.36,0,6.72,0,10.08
	c0,0.9-0.15,1.04-1.06,1.04c-2.49,0-4.98,0.01-7.47,0c-4.69-0.02-8.29-3.62-8.3-8.32c-0.01-4.93-0.01-9.86,0-14.78
	c0.01-4.75,3.6-8.35,8.33-8.35c4.93-0.01,9.86-0.01,14.8,0c4.75,0.01,8.35,3.59,8.36,8.33c0.01,4.93,0.01,9.86,0,14.78
	c-0.01,4.78-3.61,8.34-8.4,8.35c-0.76,0-1.52-0.01-2.29,0c-0.6,0.01-0.86-0.28-0.86-0.86c0-3.49,0-6.99,0.01-10.48
	c0-0.74,0.22-0.94,0.98-0.95C22.03,19.44,22.88,19.45,23.79,19.45z M21.59,30.38c0.76,0,1.48,0.02,2.19,0
	c3.54-0.09,6.57-3.06,6.6-6.61c0.05-5.17,0.05-10.35,0-15.52c-0.03-3.58-3.07-6.59-6.65-6.62c-5.16-0.04-10.31-0.04-15.47,0
	C4.67,1.66,1.65,4.66,1.62,8.25c-0.05,5.17-0.04,10.35,0,15.52c0.03,3.16,2.48,5.95,5.6,6.48c0.46,0.08,0.93,0.12,1.4,0.12
	c2.35,0.01,4.7,0.01,7.07,0.01c0-3.22,0-6.36,0-9.5c-0.07-0.03-0.11-0.07-0.15-0.07c-0.9-0.01-1.79-0.01-2.69-0.03
	c-0.72-0.01-0.91-0.21-0.92-0.94c-0.01-1.19,0-2.37,0-3.56c0-1.05,0.1-1.14,1.17-1.14c0.86,0,1.73,0,2.62,0c0-1.28,0-2.44,0-3.61
	c0-2.35,1-3.84,3.18-4.7c2.12-0.83,4.29-0.8,6.48-0.36c0.47,0.09,0.67,0.4,0.67,0.87c0,1.21,0,2.42,0,3.63
	c0,0.58-0.29,0.86-0.88,0.85c-0.9-0.01-1.8,0.03-2.69-0.01c-0.64-0.03-0.92,0.28-0.94,0.86c-0.02,0.69-0.03,1.39,0.02,2.08
	c0.01,0.14,0.29,0.37,0.45,0.38c0.9,0.04,1.79,0.01,2.69,0.02c0.88,0.01,1.09,0.23,0.96,1.1c-0.18,1.22-0.4,2.43-0.57,3.65
	c-0.09,0.66-0.42,0.93-1.08,0.9c-0.8-0.03-1.6-0.01-2.43-0.01C21.59,24.02,21.59,27.15,21.59,30.38z"/>
</svg>
