<?xml version="1.0" encoding="utf-8"?>
<!-- Generator: Adobe Illustrator 24.3.0, SVG Export Plug-In . SVG Version: 6.00 Build 0)  -->
<svg version="1.1" id="Layer_1" xmlns="http://www.w3.org/2000/svg" xmlns:xlink="http://www.w3.org/1999/xlink" x="0px" y="0px"
	 viewBox="0 0 32 32" style="enable-background:new 0 0 32 32;" xml:space="preserve">
<g>
	<path d="M18.8,31.61c-2.76,0-5.42,0-8.13,0c0-7.11,0-14.21,0-21.36c2.57,0,5.14,0,7.76,0c0.02,0.34,0.04,0.67,0.06,1.09
		c1.12-0.83,2.28-1.38,3.58-1.65c4.99-1.03,9.68,2.76,9.68,7.84c0,4.47,0,8.93,0,13.4c0,0.2,0,0.41,0,0.66c-2.7,0-5.37,0-8.15,0
		c0-0.21,0-0.45,0-0.68c0-3.56-0.01-7.13-0.01-10.69c0-0.72-0.14-1.38-0.65-1.93c-0.67-0.72-1.68-0.98-2.59-0.61
		c-0.93,0.38-1.51,1.07-1.53,2.1c-0.03,1.64-0.02,3.28-0.02,4.92c0,2.07,0,4.14,0,6.21C18.8,31.11,18.8,31.33,18.8,31.61z
		 M16.95,29.76c0-0.31,0-0.55,0-0.8c0-3.05-0.02-6.11,0.01-9.16c0.03-2.64,2.44-4.56,5.02-4.06c2.06,0.4,3.44,2.1,3.46,4.32
		c0.02,3.01,0.01,6.02,0.01,9.03c0,0.22,0,0.43,0,0.64c1.54,0,2.98,0,4.42,0c0.01-0.1,0.03-0.16,0.03-0.22
		c0-4.08,0.01-8.15-0.01-12.23c-0.01-1.22-0.41-2.33-1.13-3.32c-2.54-3.52-7.86-3.42-10.34,0.19c-0.15,0.21-0.38,0.45-0.61,0.5
		c-0.36,0.08-0.76,0.02-1.21,0.02c0-0.89,0-1.72,0-2.57c-1.4,0-2.74,0-4.08,0c0,5.91,0,11.78,0,17.66
		C14,29.76,15.43,29.76,16.95,29.76z"/>
	<path d="M0.78,10.22c2.69,0,5.34,0,8.05,0c0,7.11,0,14.21,0,21.36c-2.66,0-5.33,0-8.05,0C0.78,24.5,0.78,17.4,0.78,10.22z
		 M6.99,29.75c0-5.92,0-11.78,0-17.66c-1.48,0-2.92,0-4.37,0c0,5.91,0,11.77,0,17.66C4.08,29.75,5.51,29.75,6.99,29.75z"/>
	<path d="M4.78,9.5C2.27,9.5,0.24,7.44,0.25,4.91C0.26,2.43,2.31,0.39,4.8,0.39c2.52,0,4.56,2.04,4.56,4.57
		C9.36,7.49,7.32,9.51,4.78,9.5z M7.51,4.95c0-1.49-1.21-2.7-2.69-2.7c-1.48,0-2.71,1.21-2.72,2.68C2.09,6.44,3.31,7.66,4.83,7.65
		C6.32,7.65,7.52,6.44,7.51,4.95z"/>
</g>
</svg>
