<?xml version="1.0" encoding="utf-8"?>
<!-- Generator: Adobe Illustrator 24.3.0, SVG Export Plug-In . SVG Version: 6.00 Build 0)  -->
<svg version="1.1" id="Layer_1" xmlns="http://www.w3.org/2000/svg" xmlns:xlink="http://www.w3.org/1999/xlink" x="0px" y="0px"
	 viewBox="0 0 32 32" style="enable-background:new 0 0 32 32;" xml:space="preserve">
<path d="M9.25,7.56C7.89,7.57,6.52,7.57,5.15,7.57c-2.12,0.01-3.18,1-3.18,3.02c0,6.04,0,12.09,0,18.13c0,2.01,1.07,3.02,3.18,3.02
	c7.18,0,14.36,0,21.55,0c2.32,0,3.34-0.96,3.34-3.14c0-5.95,0-11.91,0-17.86c0-0.25,0-0.5-0.02-0.75c-0.11-1.35-1.21-2.37-2.64-2.41
	c-1.27-0.03-2.55-0.01-3.82-0.01c-0.25,0-0.51,0-0.83,0c0.01-0.24,0.02-0.47,0.02-0.7c-0.01-1.67-0.46-3.16-1.61-4.42
	c-1.31-1.44-2.99-2.18-5-2.2c-1.65-0.01-3.11,0.5-4.36,1.53c-1.65,1.37-2.3,3.12-2.29,5.09c0,0.2,0,0.41,0.02,0.61
	C9.34,7.54,9.3,7.56,9.25,7.56z M22.7,12.67c0.02,3.28-2.47,5.81-5.98,6.11c-3.47,0.29-6.53-1.82-7.13-4.96
	c-0.13-0.66-0.08-1.36-0.07-2.04c0.01-0.45,0.31-0.73,0.78-0.73c0.51,0,0.79,0.28,0.81,0.77c0.01,0.32,0,0.64,0.01,0.95
	c0.03,2.58,2.18,4.51,5.01,4.5c2.81-0.01,4.92-1.92,4.94-4.47c0-0.34-0.1-0.73,0.04-1.01c0.14-0.3,0.48-0.63,0.8-0.7
	c0.45-0.1,0.74,0.26,0.79,0.7C22.73,12.08,22.7,12.38,22.7,12.67z M13.25,2.61c1.71-1.12,3.57-1.2,5.36-0.21
	c1.83,1.01,2.51,2.58,2.45,4.48c-0.01,0.21-0.02,0.43-0.04,0.65c-3.27,0-6.54,0-9.85,0c-0.02-0.22-0.04-0.44-0.04-0.65
	C11.08,5.14,11.65,3.66,13.25,2.61z"/>
</svg>
