<?xml version="1.0" encoding="utf-8"?>
<!-- Generator: Adobe Illustrator 24.3.0, SVG Export Plug-In . SVG Version: 6.00 Build 0)  -->
<svg version="1.1" id="Layer_1" xmlns="http://www.w3.org/2000/svg" xmlns:xlink="http://www.w3.org/1999/xlink" x="0px" y="0px"
	 viewBox="0 0 32 32" style="enable-background:new 0 0 32 32;" xml:space="preserve">
<path d="M6.21,17.43c-0.55-0.24-1.13-0.44-1.68-0.72c-1.73-0.87-1.98-3.24-0.47-4.34c0.74-0.55,1.56-0.54,2.45-0.32
	c0.04-0.8,0.06-1.57,0.11-2.35c0.32-4.74,4.21-8.66,8.75-8.83c5.06-0.19,9.27,3.23,9.96,8.13c0.14,0.99,0.13,2,0.19,3.03
	c0.17-0.03,0.32-0.06,0.48-0.08c1.33-0.2,2.45,0.45,2.82,1.62c0.39,1.22-0.16,2.55-1.31,3.12c-0.55,0.27-1.12,0.49-1.74,0.75
	c0.5,1.63,1.4,2.9,3,3.59c0.51,0.22,1.04,0.37,1.56,0.57c0.78,0.3,1.34,0.81,1.43,1.68c0.09,0.91-0.3,1.65-1.08,2.05
	c-0.73,0.38-1.56,0.6-2.36,0.82c-0.31,0.09-0.48,0.18-0.56,0.52c-0.39,1.51-1.31,2.15-2.88,2.06c-0.12-0.01-0.25-0.01-0.37-0.03
	c-1.47-0.19-2.82,0.07-4.09,0.92c-1.37,0.92-2.87,1.59-4.59,1.52c-1.24-0.05-2.36-0.48-3.43-1.06c-0.16-0.09-0.33-0.17-0.48-0.28
	c-1.41-1.05-2.99-1.3-4.71-1.1c-1.6,0.19-2.5-0.5-2.92-2.06c-0.08-0.3-0.22-0.41-0.52-0.48c-0.68-0.16-1.36-0.33-1.99-0.6
	c-0.84-0.36-1.4-0.99-1.49-1.95c-0.07-0.83,0.38-1.56,1.24-1.94c0.49-0.21,1-0.35,1.5-0.54C4.65,20.51,5.87,19.1,6.21,17.43z
	 M23.75,26.98c2.08,0.15,2.07,0.15,2.51-1.69c0.05-0.22,0.38-0.46,0.62-0.54c0.74-0.22,1.53-0.32,2.26-0.55
	c0.33-0.11,0.6-0.42,0.9-0.64c-0.29-0.19-0.55-0.46-0.86-0.55c-2.7-0.8-4.32-2.62-5.1-5.26c-0.3-1.01-0.13-1.39,0.87-1.8
	c0.57-0.23,1.14-0.45,1.7-0.7c0.51-0.22,0.7-0.65,0.54-1.16c-0.17-0.51-0.59-0.56-1.06-0.44c-0.28,0.07-0.56,0.13-0.84,0.19
	c-0.96,0.22-1.4-0.09-1.47-1.08c-0.08-1.21-0.05-2.42-0.2-3.62c-0.46-3.7-3.87-6.62-7.63-6.61c-3.8,0.01-7.15,2.89-7.62,6.62
	c-0.15,1.24-0.12,2.49-0.21,3.74c-0.06,0.83-0.53,1.16-1.34,0.99c-0.38-0.08-0.75-0.2-1.14-0.26c-0.6-0.1-1.05,0.32-0.88,0.89
	c0.09,0.3,0.39,0.62,0.67,0.77c0.61,0.33,1.28,0.54,1.92,0.81c0.52,0.22,0.79,0.64,0.65,1.18c-0.65,2.56-1.99,4.56-4.6,5.5
	c-0.4,0.15-0.81,0.28-1.21,0.44c-0.39,0.16-0.37,0.43-0.09,0.65c0.22,0.17,0.49,0.3,0.76,0.37c0.73,0.19,1.47,0.35,2.21,0.5
	c0.39,0.08,0.6,0.25,0.66,0.68c0.22,1.72,0.25,1.74,1.99,1.61C7.89,27,7.99,27,8.09,26.99c1.35-0.15,2.6,0.12,3.76,0.84
	c0.66,0.41,1.35,0.78,2.05,1.12c1.09,0.53,2.25,0.74,3.4,0.29c0.97-0.37,1.9-0.86,2.8-1.39C21.31,27.14,22.57,26.81,23.75,26.98z"/>
</svg>
