<?xml version="1.0" encoding="utf-8"?>
<!-- Generator: Adobe Illustrator 24.3.0, SVG Export Plug-In . SVG Version: 6.00 Build 0)  -->
<svg version="1.1" id="Layer_1" xmlns="http://www.w3.org/2000/svg" xmlns:xlink="http://www.w3.org/1999/xlink" x="0px" y="0px"
	 viewBox="0 0 32 32" style="enable-background:new 0 0 32 32;" xml:space="preserve">
<path d="M13.83,19.54c-1.27,1.47-2.51,2.91-3.75,4.36c-2.14,2.48-4.28,4.96-6.41,7.46c-0.25,0.3-0.51,0.41-0.89,0.4
	c-0.67-0.03-1.35-0.01-2.18-0.01c4.06-4.72,8.03-9.33,12.03-13.98c-3.99-5.81-7.97-11.59-12-17.45c0.24-0.02,0.41-0.04,0.57-0.04
	c2.69,0,5.37,0.01,8.06-0.01c0.41,0,0.62,0.15,0.84,0.46c2.37,3.47,4.75,6.92,7.13,10.38c0.15,0.22,0.3,0.43,0.51,0.72
	c0.28-0.32,0.53-0.61,0.78-0.9c2.91-3.38,5.83-6.76,8.73-10.16c0.32-0.38,0.65-0.55,1.15-0.51c0.62,0.05,1.25,0.01,2.01,0.01
	c-3.88,4.51-7.67,8.91-11.47,13.33c4.15,6.03,8.27,12.03,12.45,18.11c-0.27,0.01-0.44,0.03-0.62,0.03c-2.66,0-5.33-0.01-7.99,0.01
	c-0.43,0-0.66-0.15-0.88-0.49c-2.54-3.72-5.1-7.43-7.65-11.14C14.13,19.94,13.99,19.76,13.83,19.54z M27.65,29.77
	c-0.15-0.23-0.23-0.39-0.34-0.53c-6.01-8.59-12.03-17.16-18-25.78C8.7,2.58,8.09,2.2,7.04,2.31C6.18,2.4,5.31,2.32,4.34,2.32
	c0.19,0.29,0.29,0.46,0.41,0.62c2.23,3.19,4.46,6.37,6.69,9.56c3.92,5.6,7.83,11.2,11.76,16.8c0.13,0.19,0.34,0.44,0.52,0.45
	C24.99,29.79,26.27,29.77,27.65,29.77z"/>
</svg>
