<?xml version="1.0" encoding="utf-8"?>
<!-- Generator: Adobe Illustrator 24.3.0, SVG Export Plug-In . SVG Version: 6.00 Build 0)  -->
<svg version="1.1" id="Layer_1" xmlns="http://www.w3.org/2000/svg" xmlns:xlink="http://www.w3.org/1999/xlink" x="0px" y="0px"
	 viewBox="0 0 100 34.3" style="enable-background:new 0 0 100 34.3;" xml:space="preserve">
<style type="text/css">
	.st0{fill:#E3DCE5;}
	.st1{fill:#E0CBE4;}
	.st2{fill:#D39EE6;}
	.st3{fill:#FFFFFF;}
</style>
<g>
	<g>
		<path class="st0" d="M17.1,1.9c8.4,0,15.2,6.8,15.2,15.2s-6.8,15.2-15.2,15.2S1.9,25.6,1.9,17.1C1.9,8.7,8.7,1.9,17.1,1.9z
			 M17.1,2.5C9,2.5,2.4,9,2.4,17.1l0,0.8l0,0.1h29.3l0-0.1l0-0.8C31.8,9,25.2,2.5,17.1,2.5z"/>
	</g>
	<g>
		<path class="st1" d="M17.1,0.3C26.4,0.3,34,7.8,34,17.1C34,26.4,26.4,34,17.1,34C7.8,34,0.3,26.4,0.3,17.1S7.8,0.3,17.1,0.3z
			 M17.1,1.4c-8.7,0-15.7,7-15.7,15.7s7,15.7,15.7,15.7s15.7-7,15.7-15.7C32.8,8.5,25.8,1.4,17.1,1.4z"/>
	</g>
	<g>
		<path class="st2" d="M10.7,12.7c0,0.4-0.5,0.7-0.8,0.9c0.2,0.1,0.5,0.2,0.8,0.3c0.4,0.1,0.9,0.2,1.3,0.2c1.2,0.2,2.4,0.3,3.6,0.4
			c3,0.2,5.9,0.4,8.9,0.4c0.7,0,1.4,0,2.1,0c0.3,0,0.6,0,1,0c0.1,0,0.3,0,0.4,0c0,0,0.2,0,0.2,0c0-0.1,0-0.2,0-0.3
			c-0.1-0.6-0.3-1.3-0.5-1.9c-0.3-0.7-0.6-1.3-0.9-1.9c-0.3-0.5-0.5-1-0.8-1.6C25.8,8.9,25.6,8.3,26,8c0.1-0.1,0.3-0.2,0.4-0.3
			c0.1-0.2,0.1-0.6-0.2-0.7c-0.2-0.1-0.5,0-0.8,0c-0.3,0-0.6,0.1-0.9,0.1c-0.5,0.1-1.1,0.1-1.6,0.2c-0.4,0.1-0.8,0-1.2-0.1
			c-1.3-0.2-2.6-0.6-4-0.8c-1.8-0.2-3.7-0.1-5.5,0.2c-1,0.1-2.1,0.3-3,0.8C8.9,7.5,8.1,8,8.3,8.7c0,0.1,0,0.2,0.1,0.4
			c0.2,0.4,0.5,0.8,0.8,1.2c0.4,0.4,0.7,0.9,1,1.4C10.4,11.9,10.7,12.3,10.7,12.7C10.7,13,10.7,11.7,10.7,12.7z M13.1,8.9
			c0.7,0,1.3,0.1,2,0.1c1.1,0.1,2.3,0.1,3.4,0.2c0.5,0,1,0.1,1.4,0.1c0.3,0,0.6,0.1,0.8,0.1c0.3,0.1,0.4,0.4,0.5,0.6
			c0.2,0.4,0.3,0.9,0.2,1.3c0,0.4-0.3,0.9-0.7,1c-0.4,0.2-0.8,0.1-1.2,0.2c-1.2,0.1-2.3,0.1-3.5,0.1c-0.2,0-0.4,0-0.5-0.1
			c-0.2-0.1-0.4-0.2-0.6-0.4c-0.5-0.4-0.9-0.8-1.3-1.2c-0.4-0.4-0.7-0.8-1-1.1c-0.1-0.1-0.2-0.2-0.2-0.3C12.3,9.2,12.7,9,13,8.9
			C13,8.9,13.1,8.9,13.1,8.9z"/>
	</g>
	<g>
		<path class="st3" d="M16.2,17.2c-1.8,0-3.6,0-5.3-0.1c-0.8,0-1.6-0.1-2.4-0.2c-0.6-0.1-1.2-0.2-1.8-0.4c0.1-0.4,0.3-0.7,0.5-1.1
			c0.3-0.5,0.7-0.9,1.2-1.1c0.3-0.2,0.6-0.3,1-0.4c0.2-0.1,0.4-0.1,0.6-0.1c0.1,0,0.1,0.1,0.2,0.1c0.4,0.1,0.8,0.2,1.1,0.3
			c1.3,0.2,2.6,0.4,3.9,0.5c1.7,0.1,3.4,0.2,5.2,0.3c1.8,0.1,3.6,0.1,5.4,0.1c0.5,0,1,0,1.5,0c0.2,0,0.4,0,0.6,0
			c0.1,0,0.3-0.1,0.4,0.1c0.2,0.3,0.2,0.7,0.2,1c0,0.1,0,0.3,0.1,0.4c0.1,0.1,0,0.1-0.1,0.2c-0.2,0.1-0.5,0.1-0.8,0.1
			c-0.6,0.1-1.1,0.1-1.7,0.1c-1.7,0.1-3.5,0.2-5.2,0.3C19.3,17.2,17.8,17.2,16.2,17.2z"/>
	</g>
	<g>
		<path class="st2" d="M9.9,13.8c0.3,0.1,0.7,0.2,1,0.3c0.5,0.1,1.1,0.2,1.6,0.3c1.5,0.2,3,0.3,4.5,0.4c3.6,0.2,7.3,0.4,10.9,0.2
			c0.1,0,0.2-0.1,0.3,0s0.1,0.2,0.1,0.4c0,0.2,0.1,0.4,0.1,0.7c0,0.1,0.1,0.3,0.2,0.4c-0.2,0.1-0.5,0.1-0.8,0.2
			c-0.5,0.1-1.1,0.1-1.6,0.1c-1.7,0.1-3.5,0.2-5.2,0.3c-2,0.1-4.1,0.1-6.1,0.1c-1.8,0-3.6-0.1-5.3-0.2c-1-0.1-2-0.2-2.9-0.5
			c0.2-0.5,0.4-1,0.8-1.4C8.1,14.3,9,13.9,9.9,13.8L9.9,13.8z M9.9,13.6c-1,0.1-2,0.6-2.7,1.4c-0.3,0.4-0.5,0.9-0.7,1.5
			c0.6,0.2,1.2,0.3,1.8,0.4c0.8,0.1,1.7,0.2,2.5,0.2c2,0.1,4.1,0.2,6.1,0.1c2,0,4-0.1,6-0.2c1.5-0.1,3-0.1,4.4-0.3
			c0.4,0,0.8-0.1,1.1-0.1c0.1,0,0.2,0,0.3-0.1c0.1-0.1,0-0.2-0.1-0.2c0-0.1-0.1-0.1-0.1-0.2c0-0.3-0.1-0.5-0.1-0.8
			c0-0.2-0.1-0.5-0.4-0.5c-1,0.1-2,0.1-2.9,0.1c-3.4,0-6.9-0.1-10.3-0.4c-1.1-0.1-2.1-0.2-3.1-0.4C11.1,14,10.5,13.9,9.9,13.6z"/>
	</g>
	<g>
		<path class="st2" d="M5.9,16.6c-0.1,0-0.2,0-0.3,0.1c-0.1,0.2-0.2,0.5-0.2,0.7c0,0.1-0.1,0.5,0,0.6c0.1,0.1,0.3,0.1,0.4,0.1
			c0.8,0.2,1.6,0.3,2.4,0.4c2.3,0.3,4.6,0.3,6.9,0.3c2.4,0,4.7,0,7.1-0.1c0.9,0,1.8-0.1,2.6-0.1c0.5,0,1-0.1,1.5-0.1
			c0,0,0.1,0,0.2,0c0.1,0,0.1-0.4,0.1-0.4c0-0.2,0-0.4,0-0.6c0-0.2,0-0.4,0-0.6c0-0.1-0.5,0-0.6,0c-1.2,0.1-2.3,0.1-3.5,0.2
			c-2.9,0.1-5.7,0.2-8.6,0.1c-1.3,0-2.6-0.1-3.9-0.2C9,17,8,16.9,7,16.6c-0.2,0-0.3-0.1-0.5-0.1L5.9,16.6z"/>
	</g>
	<g>
		<path class="st3" d="M9.7,7.7c0.8-0.4,1.6-0.6,2.5-0.7c1-0.2,2-0.2,3-0.3c2-0.1,4.1,0.2,6,0.8c0.4,0.1,0.7,0.2,1.1,0.3
			c-1.8-0.5-3.6-0.8-5.4-0.9c-1-0.1-2-0.1-3.1,0c-1,0.1-2,0.2-3,0.4C10.5,7.4,10.1,7.6,9.7,7.7z"/>
	</g>
	<g>
		<path class="st3" d="M12,9.9c0.5,0.5,1,1.1,1.6,1.6c0.4,0.3,0.7,0.7,1.1,1c0.2,0.1,0.4,0.3,0.6,0.4c0.2,0.1,0.5,0.1,0.7,0.2
			c1,0.1,2,0.1,3,0.1c0.5,0,0.9-0.1,1.4-0.1c0.4,0,0.8-0.1,1.1-0.2c-0.3,0.2-0.7,0.2-1,0.3c-0.5,0.1-0.9,0.1-1.4,0.1
			c-1,0.1-2,0.1-3,0c-0.2,0-0.5-0.1-0.7-0.1s-0.4-0.2-0.6-0.4c-0.4-0.3-0.7-0.6-1.1-1c-0.3-0.3-0.6-0.7-0.9-1
			C12.5,10.4,12.3,10.1,12,9.9z"/>
	</g>
	<g>
		<path class="st3" d="M6.4,16.7c0.8,0.3,1.7,0.4,2.6,0.5c1,0.1,2,0.1,3,0.2c2.2,0.1,4.3,0,6.4,0c2.6,0,5.2-0.1,7.8-0.3
			c-1.6,0.2-3.3,0.2-4.9,0.3c-2.1,0.1-4.3,0.1-6.4,0.1c-1.5,0-3.1,0-4.6-0.2C9,17.3,7.6,17.2,6.4,16.7z"/>
	</g>
	<g>
		<g>
			<path class="st2" d="M6.8,16.1c0.9,0.2,2.1,0.5,3.5,0.6L6.8,16.1z"/>
		</g>
		<g>
			<path class="st2" d="M6.8,16.1c0.6,0.1,1.1,0.3,1.7,0.4c0.6,0.1,1.2,0.2,1.8,0.2c-0.6,0-1.2-0.1-1.8-0.1s-1.2-0.2-1.7-0.3
				C6.8,16.2,6.8,16.1,6.8,16.1z"/>
		</g>
	</g>
	<g>
		<g>
			<path class="st2" d="M6.9,15.9c0.6,0.2,1.3,0.4,2.2,0.4L6.9,15.9z"/>
		</g>
		<g>
			<path class="st2" d="M6.9,15.8c0.7,0.3,1.5,0.4,2.2,0.5c-0.8,0-1.5-0.2-2.3-0.4C6.9,15.9,6.9,15.8,6.9,15.8z"/>
		</g>
	</g>
	<g>
		<path class="st2" d="M28.4,15.3c-1.8,0.1-3.5,0.1-5.3,0c-1.8,0-3.5-0.1-5.3-0.2c1.8,0.1,3.7,0.1,5.5,0.1c1,0,2.1,0,3.1,0
			c0.5,0,1,0,1.4-0.1c0.2,0,0.4,0,0.5,0C28.4,15.1,28.4,15.2,28.4,15.3z"/>
	</g>
	<g>
		<path class="st2" d="M28.5,15.6c-1.3,0-2.6,0-4,0c-1.3,0-2.6-0.1-4-0.2c1.3,0.1,2.6,0.1,3.9,0.1c1.3,0,2.7-0.1,4-0.1
			C28.4,15.5,28.4,15.5,28.5,15.6z"/>
	</g>
	<g>
		<path class="st3" d="M27.5,15.1c-0.1-0.7-0.2-1.4-0.4-2c-0.2-0.7-0.5-1.3-0.8-1.9c0.4,0.6,0.7,1.2,0.9,1.8
			c0.2,0.7,0.4,1.4,0.5,2.1C27.6,15.1,27.5,15.1,27.5,15.1z"/>
	</g>
	<g>
		<path class="st3" d="M23.8,12.1c-0.6,0-1.1-0.5-1.1-1.1c0-0.6,0.5-1.1,1.1-1.1c0.6,0,1.1,0.5,1.1,1.1
			C24.8,11.6,24.4,12.1,23.8,12.1z M23.8,10c-0.5,0-1,0.4-1,1c0,0.5,0.5,1,1,1c0.5,0,1-0.4,1-1C24.8,10.5,24.3,10,23.8,10z"/>
	</g>
	<g>
		<path class="st3" d="M23.8,11.6c-0.3,0-0.6-0.3-0.6-0.6C23.1,11.3,23.4,11.6,23.8,11.6c0.4,0.1,0.6-0.2,0.6-0.6
			C24.4,11.3,24.1,11.6,23.8,11.6z"/>
	</g>
	<g>
		<path class="st3" d="M23.8,10.2c0.5,0,0.9,0.4,0.9,0.8C24.7,10.5,24.3,10.1,23.8,10.2c-0.5-0.1-0.9,0.3-0.9,0.8
			C22.9,10.6,23.3,10.2,23.8,10.2z"/>
	</g>
	<g>
		<path class="st3" d="M5.4,18c1.4,1.5,19.5,1.9,21.2,0.1C25.6,20.1,6.3,19.7,5.4,18z"/>
	</g>
	<g>
		<path d="M28.6,16.8l3.3-4.9c-0.8,0-1.5,0.1-2.4,0.3c-0.8,0.2-1.5,0.4-2.1,0.6s-1.1,0.4-1.6,0.6c-0.5,0.2-0.8,0.3-1,0.4
			c0,0-0.1,0-0.1-0.1c0,0-0.1-0.1-0.1-0.1c0-0.1,0.2-0.4,0.5-1.1c0.3-0.6,0.7-1.3,1.2-2.1c2.5-0.9,4.7-1.3,6.6-1.3
			c2.2,0,3.8,0.5,4.6,1.4c0.3,0.3,0.5,0.7,0.7,1.2c0.2,0.5,0.2,1,0.2,1.4c0,1.1-0.2,2.1-0.7,2.9c-0.5,0.9-1.1,1.6-1.9,2.3
			c-0.8,0.6-1.8,1.1-2.9,1.5c-1.1,0.3-2.4,0.5-3.7,0.5c-0.2,0-0.7,0-1.5-0.1l-1,1.8c0.1,0.1,0.1,0.3,0.1,0.4c0,0.2,0,0.4-0.1,0.6
			c-0.1,0.2-0.3,0.5-0.6,0.9s-0.4,0.6-0.5,0.7c-0.1,0.1-0.2,0.2-0.3,0.3c-0.1,0.1-0.2,0.1-0.3,0.1c-0.2,0-0.3-0.1-0.4-0.2
			c-0.1-0.1-0.1-0.3-0.1-0.5c0-0.3,0.2-0.8,0.5-1.5s0.8-1.6,1.4-2.7c-0.3-0.1-0.6-0.3-0.8-0.5c-0.2-0.2-0.3-0.4-0.3-0.6
			c0-0.4,0.3-0.9,0.8-1.2C26.8,17.4,27.6,17.1,28.6,16.8z M29.7,17.1l-0.6,1c0.3,0,0.5,0,0.7,0s0.4,0,0.5,0c1.2,0,2.3-0.2,3.3-0.5
			s1.7-0.8,2.2-1.2c0.5-0.5,0.9-1,1.2-1.5s0.4-0.9,0.4-1.3c0-0.5-0.2-0.8-0.6-1.1c-0.4-0.3-0.9-0.4-1.6-0.5s-1.6-0.1-2.7-0.1
			c0,0.1,0,0.2,0,0.3c0,0.4-0.2,0.9-0.6,1.5L30,16.6l1.4-0.2c0.1,0,0.2,0,0.2,0.2c0,0.1-0.1,0.2-0.3,0.2L29.7,17.1z"/>
		<path d="M43.1,19.1c-1,1.4-1.8,2.4-2.4,2.9c-0.5,0.6-1,0.9-1.3,0.9c-0.3,0-0.5-0.1-0.8-0.3s-0.4-0.5-0.5-0.9
			c-0.1-0.4-0.2-0.8-0.2-1.2c0-0.3,0-0.5,0.1-0.8c0-0.2,0.2-0.5,0.3-0.8s0.3-0.6,0.6-0.9s0.5-0.7,0.9-1.1c0.2-0.2,0.4-0.5,0.5-0.6
			s0.3-0.3,0.4-0.4s0.4-0.1,0.7-0.1c0.2,0,0.5,0,0.7,0.1s0.3,0.1,0.3,0.2c0,0.1-0.1,0.4-0.3,0.7s-0.5,0.8-1,1.2s-1,1-1.6,1.4
			c-0.1,0.4-0.2,0.8-0.2,1c0,0.3,0.1,0.5,0.3,0.5c0.1,0,0.2-0.1,0.4-0.2s0.5-0.4,1-0.9s0.9-0.8,1.3-1.1c0.3-0.2,0.6-0.6,1-1.1
			c0.4-0.5,0.7-0.9,0.9-1.1c0.5-0.6,0.9-0.9,1.1-1.1c0.2-0.2,0.4-0.2,0.6-0.2c0.2,0,0.3,0.1,0.3,0.2s0.1,0.3,0.1,0.7
			c0,0.1,0,0.3,0,0.4s-0.1,0.2-0.2,0.4c-0.1,0.1-0.3,0.4-0.5,0.8s-0.6,0.9-1,1.4c-0.2,0.3-0.4,0.6-0.5,0.9c-0.2,0.3-0.2,0.6-0.2,0.8
			c0,0.4,0.2,0.6,0.4,0.6c0.2,0,0.5-0.1,0.8-0.3c0.3-0.2,0.8-0.6,1.5-1.1v0.7c-0.8,0.8-1.5,1.3-1.9,1.7s-0.8,0.6-1,0.8
			c-0.3,0.2-0.6,0.3-0.8,0.3c-0.6,0-0.9-0.4-0.9-1.1c0-0.3,0.1-0.6,0.3-1.1S42.7,20,43.1,19.1z"/>
		<path d="M46.4,20.7V20c0.4-0.5,0.7-0.9,0.9-1.2c-0.2-0.1-0.4-0.2-0.5-0.3s-0.2-0.3-0.2-0.5c0-0.3,0.1-0.6,0.3-1
			c0.2-0.4,0.5-0.8,0.8-1.1c0.3-0.3,0.6-0.6,0.9-0.7c0.1-0.1,0.2-0.1,0.3-0.1c0.1,0,0.2,0.1,0.2,0.2c0,0.1-0.1,0.4-0.3,0.7
			c1.5-0.2,2.4-0.3,2.8-0.3c0.2,0,0.2,0,0.3,0c0.1,0.1,0.2,0.2,0.3,0.4c0.1,0.2,0.1,0.5,0.1,0.7c0,0.1-0.1,0.3-0.2,0.5
			s-0.4,0.4-0.7,0.8c-0.4,0.4-0.7,0.9-1,1.3s-0.4,0.8-0.4,1.1c0,0.3,0.2,0.5,0.6,0.5c0.4,0,1.2-0.4,2.3-1.3v0.7
			c-0.6,0.6-1.1,1.1-1.5,1.5c-0.4,0.4-0.8,0.6-1.1,0.9c-0.3,0.2-0.6,0.3-0.9,0.3c-0.3,0-0.5-0.1-0.8-0.4c-0.2-0.3-0.3-0.7-0.3-1.2
			c0-0.3,0.1-0.7,0.2-1s0.4-0.8,0.7-1.3c0.3-0.5,0.7-0.9,1-1.4c-0.2,0-0.4,0.1-0.7,0.1c-0.2,0-0.5,0.1-0.8,0.1
			c-0.3,0-0.5,0.1-0.7,0.1C47.9,19.1,47.2,20,46.4,20.7z"/>
		<path d="M54.6,20.2v0.3c0,0.4,0.1,0.8,0.3,1c0.2,0.2,0.5,0.4,0.8,0.4c0.3,0,0.7-0.1,1.1-0.2c0.4-0.2,0.8-0.4,1.1-0.7
			c0.4-0.3,0.8-0.6,1.4-1.1v0.7c-0.8,1-1.6,1.7-2.3,2.2s-1.4,0.8-2.2,0.8c-0.6,0-1.1-0.2-1.5-0.7c-0.4-0.5-0.6-1.2-0.6-2
			c0-0.8,0.2-1.4,0.5-2s0.9-1.3,1.7-1.9c0.5-0.5,1.1-0.8,1.6-1.1s1-0.4,1.4-0.4c0.3,0,0.6,0.1,0.8,0.2s0.3,0.4,0.3,0.7
			c0,0.5-0.2,0.9-0.5,1.4s-0.8,0.9-1.5,1.3C56.5,19.4,55.7,19.8,54.6,20.2z M54.8,19.5c0.7-0.2,1.2-0.6,1.7-0.9
			c0.5-0.4,0.8-0.7,1-1.1s0.3-0.6,0.3-0.8s-0.1-0.2-0.2-0.2c-0.1,0-0.3,0.1-0.6,0.2c-0.3,0.2-0.6,0.4-0.9,0.6s-0.6,0.6-0.8,0.9
			C55,18.7,54.8,19.1,54.8,19.5z"/>
		<path d="M63.7,16.8L67,12c-0.8,0-1.5,0.1-2.3,0.3s-1.5,0.4-2.1,0.6s-1.1,0.4-1.6,0.6c-0.5,0.2-0.8,0.3-1,0.4c0,0-0.1,0-0.2-0.1
			c0,0-0.1-0.1-0.1-0.1c0-0.1,0.2-0.4,0.5-1.1c0.3-0.6,0.7-1.3,1.2-2.1c2.5-0.9,4.7-1.3,6.6-1.3c2.2,0,3.8,0.5,4.6,1.4
			c0.3,0.3,0.6,0.7,0.7,1.2c0.2,0.5,0.2,1,0.2,1.4c0,1.1-0.2,2.1-0.7,2.9c-0.4,0.9-1.1,1.6-1.9,2.3c-0.8,0.6-1.8,1.1-2.9,1.5
			c-1.1,0.3-2.4,0.5-3.7,0.5c-0.2,0-0.7,0-1.5-0.1l-1,1.8c0.1,0.1,0.2,0.3,0.2,0.4c0,0.2,0,0.4-0.2,0.6c-0.1,0.2-0.3,0.5-0.6,0.9
			c-0.2,0.4-0.4,0.6-0.5,0.7c-0.1,0.1-0.2,0.2-0.3,0.3c-0.1,0.1-0.2,0.1-0.3,0.1c-0.2,0-0.3-0.1-0.4-0.2c-0.1-0.1-0.1-0.3-0.1-0.5
			c0-0.3,0.2-0.8,0.5-1.5s0.8-1.6,1.4-2.7c-0.3-0.1-0.6-0.3-0.8-0.5c-0.2-0.2-0.3-0.4-0.3-0.6c0-0.4,0.2-0.9,0.8-1.2
			C61.9,17.4,62.7,17.1,63.7,16.8z M64.8,17.1l-0.6,1c0.3,0,0.5,0,0.7,0c0.2,0,0.4,0,0.5,0c1.2,0,2.3-0.2,3.3-0.5
			c0.9-0.3,1.7-0.8,2.2-1.2s0.9-1,1.2-1.5c0.2-0.5,0.4-0.9,0.4-1.3c0-0.5-0.2-0.8-0.6-1.1s-0.9-0.4-1.6-0.5s-1.6-0.1-2.7-0.1
			c0,0.1,0,0.2,0,0.3c0,0.4-0.2,0.9-0.6,1.5l-1.9,2.9l1.4-0.2c0.1,0,0.2,0,0.2,0.2c0,0.1-0.1,0.2-0.3,0.2L64.8,17.1z"/>
		<path d="M73,20.7V20c0.4-0.5,0.7-0.9,0.9-1.2c-0.2-0.1-0.4-0.2-0.5-0.3s-0.2-0.3-0.2-0.5c0-0.3,0.1-0.6,0.3-1
			c0.2-0.4,0.5-0.8,0.8-1.1c0.3-0.3,0.6-0.6,0.9-0.7c0.1-0.1,0.2-0.1,0.3-0.1c0.1,0,0.2,0.1,0.2,0.2c0,0.1-0.1,0.4-0.3,0.7
			c1.5-0.2,2.4-0.3,2.8-0.3c0.2,0,0.2,0,0.3,0c0.1,0.1,0.2,0.2,0.3,0.4c0.1,0.2,0.1,0.5,0.1,0.7c0,0.1-0.1,0.3-0.2,0.5
			s-0.4,0.4-0.7,0.8c-0.4,0.4-0.7,0.9-1,1.3s-0.4,0.8-0.4,1.1c0,0.3,0.2,0.5,0.6,0.5c0.4,0,1.2-0.4,2.3-1.3v0.7
			c-0.6,0.6-1.1,1.1-1.5,1.5s-0.8,0.6-1.1,0.9c-0.3,0.2-0.6,0.3-0.9,0.3c-0.3,0-0.6-0.1-0.8-0.4c-0.2-0.3-0.3-0.7-0.3-1.2
			c0-0.3,0.1-0.7,0.2-1c0.2-0.4,0.4-0.8,0.7-1.3c0.3-0.5,0.7-0.9,1-1.4c-0.2,0-0.4,0.1-0.7,0.1c-0.2,0-0.5,0.1-0.8,0.1
			s-0.5,0.1-0.7,0.1C74.5,19.1,73.9,20,73,20.7z"/>
		<path d="M81.3,20.2v0.3c0,0.4,0.1,0.8,0.3,1s0.5,0.4,0.8,0.4c0.3,0,0.7-0.1,1.1-0.2c0.4-0.2,0.8-0.4,1.1-0.7
			c0.4-0.3,0.8-0.6,1.4-1.1v0.7c-0.8,1-1.6,1.7-2.3,2.2s-1.4,0.8-2.2,0.8c-0.6,0-1.1-0.2-1.5-0.7c-0.4-0.5-0.6-1.2-0.6-2
			c0-0.8,0.2-1.4,0.5-2c0.3-0.6,0.9-1.3,1.7-1.9c0.5-0.5,1.1-0.8,1.6-1.1c0.5-0.2,1-0.4,1.4-0.4c0.3,0,0.6,0.1,0.8,0.2
			s0.3,0.4,0.3,0.7c0,0.5-0.2,0.9-0.5,1.4c-0.3,0.5-0.8,0.9-1.5,1.3C83.1,19.4,82.3,19.8,81.3,20.2z M81.4,19.5
			c0.7-0.2,1.2-0.6,1.7-0.9c0.5-0.4,0.8-0.7,1-1.1c0.2-0.3,0.3-0.6,0.3-0.8s-0.1-0.2-0.2-0.2c-0.1,0-0.3,0.1-0.6,0.2
			c-0.3,0.2-0.6,0.4-0.9,0.6c-0.3,0.3-0.6,0.6-0.8,0.9C81.6,18.7,81.4,19.1,81.4,19.5z"/>
		<path d="M85.9,20.1v-0.2c1.8-2,3.1-3.3,3.8-4.1c0.2-0.9,0.5-1.3,1.1-1.3c0.2,0,0.3,0,0.5,0.1l0.1,0.2c0,0.1,0,0.2,0,0.4
			c0,0.1,0.1,0.4,0.2,0.8c0.1,0.4,0.2,0.7,0.2,0.9s0.1,0.5,0.1,0.9c0,0.5-0.1,0.9-0.3,1.4c-0.2,0.4-0.5,0.9-0.9,1.2
			s-0.9,0.8-1.6,1.2c0.3,0,0.5,0.1,0.6,0.1c0.3,0,0.6-0.1,0.9-0.2s0.7-0.3,1-0.6s0.8-0.6,1.2-1v0.7c-0.9,0.9-1.7,1.6-2.5,2
			c-0.7,0.5-1.3,0.7-1.9,0.7c-0.7,0-1.3-0.3-1.9-0.9c-0.3-0.3-0.6-0.7-0.6-1C86,21.1,85.9,20.7,85.9,20.1z M89.9,18.5l-0.2-1.6
			c-0.4,0.5-1.4,1.5-2.8,2.9c0.4,0.1,0.7,0.2,0.9,0.4s0.4,0.5,0.7,0.9c0.5-0.2,0.9-0.5,1.1-0.8s0.4-0.8,0.4-1.4c0-0.1,0-0.1,0-0.2
			C90,18.6,89.9,18.6,89.9,18.5z"/>
		<path d="M92.8,20.1v-0.2c1.8-2,3.1-3.3,3.8-4.1c0.2-0.9,0.5-1.3,1.1-1.3c0.2,0,0.3,0,0.5,0.1l0.1,0.2c0,0.1,0,0.2,0,0.4
			c0,0.1,0.1,0.4,0.2,0.8c0.1,0.4,0.2,0.7,0.2,0.9s0.1,0.5,0.1,0.9c0,0.5-0.1,0.9-0.3,1.4c-0.2,0.4-0.5,0.9-0.9,1.2
			s-0.9,0.8-1.6,1.2c0.3,0,0.5,0.1,0.6,0.1c0.3,0,0.6-0.1,0.9-0.2s0.7-0.3,1-0.6s0.8-0.6,1.2-1v0.7c-0.9,0.9-1.7,1.6-2.5,2
			c-0.7,0.5-1.3,0.7-1.9,0.7c-0.7,0-1.3-0.3-1.9-0.9c-0.3-0.3-0.6-0.7-0.6-1C92.8,21.1,92.8,20.7,92.8,20.1z M96.8,18.5l-0.2-1.6
			c-0.4,0.5-1.4,1.5-2.8,2.9c0.4,0.1,0.7,0.2,0.9,0.4s0.4,0.5,0.7,0.9c0.5-0.2,0.9-0.5,1.1-0.8s0.4-0.8,0.4-1.4c0-0.1,0-0.1,0-0.2
			C96.8,18.6,96.8,18.6,96.8,18.5z"/>
	</g>
</g>
</svg>
